<?xml version="1.0" encoding="UTF-8"?>
<svg width="25px" height="35px" viewBox="0 0 25 35" version="1.1" xmlns="http://www.w3.org/2000/svg" xmlns:xlink="http://www.w3.org/1999/xlink">
    <!-- Generator: Sketch 49 (51002) - http://www.bohemiancoding.com/sketch -->
    <title>Shape</title>
    <desc>Created with Sketch.</desc>
    <defs></defs>
    <g id="Symbols" stroke="none" stroke-width="1" fill="none" fill-rule="evenodd">
        <g id="pin-dark" transform="translate(-2.000000, -2.000000)" fill="#002440">
            <path d="M14.5,2 C7.59821429,2 2,7.48625 2,14.25 C2,23.4375 14.5,37 14.5,37 C14.5,37 27,23.4375 27,14.25 C27,7.48625 21.4017857,2 14.5,2 L14.5,2 Z M14.5,20 C12.016,20 10,17.984 10,15.5 C10,13.016 12.016,11 14.5,11 C16.984,11 19,13.016 19,15.5 C19,17.984 16.984,20 14.5,20 L14.5,20 Z" id="Shape"></path>
        </g>
    </g>
</svg>
